<svg width="30" height="30" viewBox="0 0 30 30" fill="none" xmlns="http://www.w3.org/2000/svg">
<path d="M10.3448 1.81036L12.9311 5.43105H30V1.81036H10.3448Z" fill="#7383BF"/>
<path d="M12.931 5.43105L10.3448 1.81036H0V5.43105V28.1897H30V9.05174H15.5172L12.931 5.43105Z" fill="#424A60"/>
<path d="M15.5172 9.05172H30V5.43103H12.931L15.5172 9.05172Z" fill="#71C3A9"/>
<path d="M9.31033 15.2586H16.5517C16.8372 15.2586 17.069 15.0274 17.069 14.7414C17.069 14.4553 16.8372 14.2241 16.5517 14.2241H9.31033C9.02481 14.2241 8.79309 14.4553 8.79309 14.7414C8.79309 15.0274 9.02481 15.2586 9.31033 15.2586Z" fill="#7383BF"/>
<path d="M9.31033 18.3621H20.6896C20.9752 18.3621 21.2069 18.1309 21.2069 17.8448C21.2069 17.5588 20.9752 17.3276 20.6896 17.3276H9.31033C9.02481 17.3276 8.79309 17.5588 8.79309 17.8448C8.79309 18.1309 9.02481 18.3621 9.31033 18.3621Z" fill="#7383BF"/>
<path d="M20.6896 20.431H9.31033C9.02481 20.431 8.79309 20.6622 8.79309 20.9483C8.79309 21.2343 9.02481 21.4655 9.31033 21.4655H20.6896C20.9752 21.4655 21.2069 21.2343 21.2069 20.9483C21.2069 20.6622 20.9752 20.431 20.6896 20.431Z" fill="#7383BF"/>
</svg>
