<svg id="Layer_1" enable-background="new 0 0 512.002 512.002" height="512" viewBox="0 0 512.002 512.002" width="512" xmlns="http://www.w3.org/2000/svg"><g><g clip-rule="evenodd" fill-rule="evenodd"><path d="m376 62.002v387.998h80.002v-440h-320v52.002z" fill="#e3eaef"/><path d="m376 450v-387.998h-239.998-80.003v360h80l.001 80h240z" fill="#fff"/><path d="m136 502.002-.001-80h-80z" fill="#e3eaef"/><path d="m123.07 249.035c-3.883 3.905-10.197 3.922-14.102.039s-3.922-10.197-.039-14.102l71.573-72.308c3.883-3.905 10.197-3.922 14.102-.039l33.578 33.922 63.888-64.544h-8.445c-5.523 0-10-4.477-10-10s4.477-10 10-10h32.373c5.523 0 10 4.477 10 10v32.373c0 5.523-4.477 10-10 10s-10-4.477-10-10v-8.096l-70.785 71.511c-3.905 3.883-10.219 3.866-14.102-.039l-33.539-33.883z" fill="#ff5d7d"/><g fill="#e3eaef"><path d="m116 312.006c-5.523 0-10-4.477-10-10s4.477-10 10-10h200c5.523 0 10 4.477 10 10s-4.477 10-10 10z"/><path d="m116 352.008c-5.523 0-10-4.477-10-10s4.477-10 10-10h200c5.523 0 10 4.477 10 10s-4.477 10-10 10z"/><path d="m116 392.009c-5.523 0-10-4.477-10-10s4.477-10 10-10h200c5.523 0 10 4.477 10 10s-4.477 10-10 10z"/><path d="m216 432.002c-5.523 0-10-4.477-10-10s4.477-10 10-10h100c5.523 0 10 4.477 10 10s-4.477 10-10 10z"/></g></g><path d="m456.002 0h-320c-5.523 0-10 4.477-10 10v42.001h-70.002c-5.523 0-10 4.477-10 10v360c0 2.652 1.054 5.196 2.929 7.071l80 80c1.875 1.875 4.419 2.929 7.071 2.929h240c5.523 0 10-4.477 10-10v-42.001h70.002c5.523 0 10-4.477 10-10v-440c0-5.523-4.477-10-10-10zm-330.002 477.86-45.858-45.858h45.858zm240 14.142h-220v-70c0-5.523-4.477-10-10-10h-70v-340h300zm80.002-52.002h-60.002v-377.998c0-5.523-4.477-10-10-10h-229.998v-32.002h300z" fill="#6d91ac"/></g></svg>