<svg width="50" height="50" viewBox="0 0 50 50" fill="none" xmlns="http://www.w3.org/2000/svg">
<path d="M30.625 1.00055H8.125C7.34837 1.00055 6.71875 1.63017 6.71875 2.4068V47.5942C6.71875 48.3708 7.34837 49.0004 8.125 49.0004H41.8749C42.6516 49.0004 43.2812 48.3708 43.2812 47.5942V13.6568L30.625 1.00055Z" fill="url(#paint0_linear)"/>
<path d="M41.875 15.0625H30.625C29.8484 15.0625 29.2188 14.4329 29.2188 13.6563V2.4063C29.2188 1.83752 29.5614 1.3247 30.0869 1.10711C30.6122 0.889421 31.2172 1.0097 31.6194 1.41198L42.8694 12.662C43.2716 13.0642 43.3919 13.669 43.1743 14.1945C42.9566 14.7199 42.4438 15.0625 41.875 15.0625V15.0625Z" fill="url(#paint1_linear)"/>
<path d="M18 36V18H23.7395C25.3141 18 26.7296 18.3626 27.986 19.0879C29.2424 19.8049 30.2214 20.8228 30.9231 22.1415C31.6329 23.4519 31.9918 24.9231 32 26.5549V27.3832C32 29.0316 31.6533 30.511 30.9598 31.8214C30.2745 33.1236 29.3036 34.1456 28.0472 34.8874C26.799 35.6209 25.4038 35.9918 23.8619 36H18ZM22.2955 21.3503V32.6621H23.7885C25.0204 32.6621 25.9668 32.2212 26.6276 31.3393C27.2885 30.4492 27.6189 29.1305 27.6189 27.3832V26.6044C27.6189 24.8654 27.2885 23.5549 26.6276 22.6731C25.9668 21.7912 25.0041 21.3503 23.7395 21.3503H22.2955Z" fill="url(#paint2_linear)"/>
<defs>
<linearGradient id="paint0_linear" x1="25" y1="49.0004" x2="25" y2="1.00055" gradientUnits="userSpaceOnUse">
<stop stop-color="#B83B3B"/>
<stop offset="1" stop-color="#FF9B9B"/>
</linearGradient>
<linearGradient id="paint1_linear" x1="36.25" y1="15.0625" x2="36.25" y2="0.999952" gradientUnits="userSpaceOnUse">
<stop stop-color="#FF9C9C"/>
<stop offset="1" stop-color="#FFE2E2"/>
</linearGradient>
<linearGradient id="paint2_linear" x1="25" y1="18" x2="25" y2="36" gradientUnits="userSpaceOnUse">
<stop stop-color="#FFE0E0"/>
<stop offset="1" stop-color="#FFA1A1"/>
</linearGradient>
</defs>
</svg>
