<svg width="200" height="200" viewBox="0 0 200 200" fill="none" xmlns="http://www.w3.org/2000/svg">
<path d="M43 36C43 30.4772 47.4772 26 53 26H148C153.523 26 158 30.4772 158 36V163C158 168.523 153.523 173 148 173H53C47.4771 173 43 168.523 43 163V36Z" fill="#B8F5D1"/>
<path d="M43 36C43 30.4772 47.4772 26 53 26H148C153.523 26 158 30.4772 158 36V163C158 168.523 153.523 173 148 173H53C47.4771 173 43 168.523 43 163V36Z" fill="url(#paint0_linear)"/>
<path d="M72.5 52C72.5 50.3431 73.8431 49 75.5 49C77.1569 49 78.5 50.3431 78.5 52V81C78.5 82.6569 77.1569 84 75.5 84C73.8431 84 72.5 82.6569 72.5 81V52Z" fill="#88F3B4"/>
<path d="M72.5 52C72.5 50.3431 73.8431 49 75.5 49C77.1569 49 78.5 50.3431 78.5 52V81C78.5 82.6569 77.1569 84 75.5 84C73.8431 84 72.5 82.6569 72.5 81V52Z" fill="url(#paint1_linear)"/>
<path d="M61 54.5C59.3431 54.5 58 53.1569 58 51.5C58 49.8431 59.3431 48.5 61 48.5L90 48.5C91.6569 48.5 93 49.8431 93 51.5C93 53.1569 91.6569 54.5 90 54.5L61 54.5Z" fill="#88F3B4"/>
<path d="M61 54.5C59.3431 54.5 58 53.1569 58 51.5C58 49.8431 59.3431 48.5 61 48.5L90 48.5C91.6569 48.5 93 49.8431 93 51.5C93 53.1569 91.6569 54.5 90 54.5L61 54.5Z" fill="url(#paint2_linear)"/>
<path d="M109.5 51.5C109.5 49.567 111.067 48 113 48H141C142.933 48 144.5 49.567 144.5 51.5C144.5 53.433 142.933 55 141 55H113C111.067 55 109.5 53.433 109.5 51.5Z" fill="#88F3B4"/>
<path d="M109.5 51.5C109.5 49.567 111.067 48 113 48H141C142.933 48 144.5 49.567 144.5 51.5C144.5 53.433 142.933 55 141 55H113C111.067 55 109.5 53.433 109.5 51.5Z" fill="url(#paint3_linear)"/>
<path d="M109.5 73.5C109.5 71.567 111.067 70 113 70H141C142.933 70 144.5 71.567 144.5 73.5C144.5 75.433 142.933 77 141 77H113C111.067 77 109.5 75.433 109.5 73.5Z" fill="#88F3B4"/>
<path d="M109.5 73.5C109.5 71.567 111.067 70 113 70H141C142.933 70 144.5 71.567 144.5 73.5C144.5 75.433 142.933 77 141 77H113C111.067 77 109.5 75.433 109.5 73.5Z" fill="url(#paint4_linear)"/>
<path d="M58.5 101.5C58.5 99.567 60.067 98 62 98H141C142.933 98 144.5 99.567 144.5 101.5C144.5 103.433 142.933 105 141 105H62C60.067 105 58.5 103.433 58.5 101.5Z" fill="#88F3B4"/>
<path d="M58.5 101.5C58.5 99.567 60.067 98 62 98H141C142.933 98 144.5 99.567 144.5 101.5C144.5 103.433 142.933 105 141 105H62C60.067 105 58.5 103.433 58.5 101.5Z" fill="url(#paint5_linear)"/>
<path d="M58.5 123.5C58.5 121.567 60.067 120 62 120H141C142.933 120 144.5 121.567 144.5 123.5C144.5 125.433 142.933 127 141 127H62C60.067 127 58.5 125.433 58.5 123.5Z" fill="#88F3B4"/>
<path d="M58.5 123.5C58.5 121.567 60.067 120 62 120H141C142.933 120 144.5 121.567 144.5 123.5C144.5 125.433 142.933 127 141 127H62C60.067 127 58.5 125.433 58.5 123.5Z" fill="url(#paint6_linear)"/>
<path d="M58.5 145.5C58.5 143.567 60.067 142 62 142H141C142.933 142 144.5 143.567 144.5 145.5C144.5 147.433 142.933 149 141 149H62C60.067 149 58.5 147.433 58.5 145.5Z" fill="#88F3B4"/>
<path d="M58.5 145.5C58.5 143.567 60.067 142 62 142H141C142.933 142 144.5 143.567 144.5 145.5C144.5 147.433 142.933 149 141 149H62C60.067 149 58.5 147.433 58.5 145.5Z" fill="url(#paint7_linear)"/>
<defs>
<linearGradient id="paint0_linear" x1="100.5" y1="26" x2="100.5" y2="173" gradientUnits="userSpaceOnUse">
<stop stop-color="#D7FCE6"/>
<stop offset="1" stop-color="white" stop-opacity="0"/>
</linearGradient>
<linearGradient id="paint1_linear" x1="75.5" y1="49" x2="75.5" y2="84" gradientUnits="userSpaceOnUse">
<stop stop-color="#CDF3DD"/>
<stop offset="1" stop-color="white" stop-opacity="0"/>
</linearGradient>
<linearGradient id="paint2_linear" x1="58" y1="51.5" x2="93" y2="51.5" gradientUnits="userSpaceOnUse">
<stop stop-color="#CDF3DD"/>
<stop offset="1" stop-color="white" stop-opacity="0"/>
</linearGradient>
<linearGradient id="paint3_linear" x1="127" y1="48" x2="127" y2="55" gradientUnits="userSpaceOnUse">
<stop stop-color="#CDF3DD"/>
<stop offset="1" stop-color="white" stop-opacity="0"/>
</linearGradient>
<linearGradient id="paint4_linear" x1="127" y1="70" x2="127" y2="77" gradientUnits="userSpaceOnUse">
<stop stop-color="#CDF3DD"/>
<stop offset="1" stop-color="white" stop-opacity="0"/>
</linearGradient>
<linearGradient id="paint5_linear" x1="101.5" y1="98" x2="101.5" y2="105" gradientUnits="userSpaceOnUse">
<stop stop-color="#CDF3DD"/>
<stop offset="1" stop-color="white" stop-opacity="0"/>
</linearGradient>
<linearGradient id="paint6_linear" x1="101.5" y1="120" x2="101.5" y2="127" gradientUnits="userSpaceOnUse">
<stop stop-color="#CDF3DD"/>
<stop offset="1" stop-color="white" stop-opacity="0"/>
</linearGradient>
<linearGradient id="paint7_linear" x1="101.5" y1="142" x2="101.5" y2="149" gradientUnits="userSpaceOnUse">
<stop stop-color="#CDF3DD"/>
<stop offset="1" stop-color="white" stop-opacity="0"/>
</linearGradient>
</defs>
</svg>
